<?xml version="1.0" encoding="iso-8859-1"?>
<!-- Generator: Adobe Illustrator 19.0.0, SVG Export Plug-In . SVG Version: 6.00 Build 0)  -->
<svg version="1.1" id="Capa_1" xmlns="http://www.w3.org/2000/svg" xmlns:xlink="http://www.w3.org/1999/xlink" x="0px" y="0px"
	 viewBox="0 0 512 512" style="enable-background:new 0 0 512 512;" xml:space="preserve">
<path style="fill:#FFF7C0;" d="M494.424,512H17.576C7.869,512,0,504.131,0,494.424V17.576C0,7.869,7.869,0,17.576,0h476.848
	C504.131,0,512,7.869,512,17.576v476.848C512,504.131,504.131,512,494.424,512z"/>
<path style="fill:#F9DBA5;" d="M474.113,45.799H396.25c-3.256,0-5.896,2.64-5.896,5.896v3.902H75.095
	c-19.346,0-35.029,15.683-35.029,35.029v209.312c0,19.346,15.683,35.029,35.029,35.029h315.259v70.14h-265.23v-3.985
	c0-3.256-2.64-5.896-5.896-5.896H41.365c-3.256,0-5.896,2.639-5.896,5.896v77.863c0,3.256,2.64,5.896,5.896,5.896h77.863
	c3.256,0,5.896-2.639,5.896-5.896v-3.82h300.259c19.346,0,35.029-15.683,35.029-35.029V299.938
	c0-19.346-15.683-35.029-35.029-35.029H110.124V125.655h280.23v3.903c0,3.256,2.64,5.896,5.896,5.896h77.863
	c3.256,0,5.896-2.64,5.896-5.896V51.695C480.008,48.439,477.369,45.799,474.113,45.799z"/>
<path style="fill:#FF4625;" d="M474.113,121.655H396.25c-3.256,0-5.896-2.64-5.896-5.896V37.896c0-3.256,2.64-5.896,5.896-5.896
	h77.863c3.256,0,5.896,2.64,5.896,5.896v77.863C480.008,119.015,477.369,121.655,474.113,121.655z"/>
<path style="fill:#49BC6E;" d="M119.228,471.081H41.365c-3.256,0-5.896-2.64-5.896-5.896v-77.863c0-3.256,2.64-5.896,5.896-5.896
	h77.863c3.256,0,5.896,2.64,5.896,5.896v77.863C125.124,468.442,122.484,471.081,119.228,471.081z"/>
<path style="fill:#F288E8;" d="M425.383,461.366H125.124v-70.057h265.23v-70.14H75.095c-19.346,0-35.029-15.683-35.029-35.029
	V76.827c0-19.346,15.683-35.029,35.029-35.029h315.259v70.057h-280.23V251.11h315.259c19.346,0,35.029,15.683,35.029,35.029v140.198
	C460.411,445.683,444.729,461.366,425.383,461.366z"/>
<path style="fill:#3D936C;" d="M90.372,456.33H62.871c-4.397,0-7.961-3.564-7.961-7.961s3.564-7.961,7.961-7.961h23.175v-5.662
	h-19.54c-6.394,0-11.596-5.202-11.596-11.595v-15.375c0-6.395,5.202-11.596,11.596-11.596h27.501c4.397,0,7.961,3.564,7.961,7.961
	s-3.564,7.961-7.961,7.961H70.832v6.722h19.54c6.394,0,11.596,5.202,11.596,11.596v14.313
	C101.968,451.128,96.767,456.33,90.372,456.33z"/>
<g>
	<path style="fill:#BF2B17;" d="M424.067,105.188c-4.397,0-7.961-3.564-7.961-7.961v-40.8c0-4.397,3.564-7.961,7.961-7.961h25.121
		c4.397,0,7.961,3.564,7.961,7.961s-3.564,7.961-7.961,7.961h-17.16v32.839C432.028,101.624,428.464,105.188,424.067,105.188z"/>
	<path style="fill:#BF2B17;" d="M443.551,90.095h-19.483c-4.397,0-7.961-3.564-7.961-7.961c0-4.397,3.564-7.961,7.961-7.961h19.483
		c4.397,0,7.961,3.564,7.961,7.961S447.947,90.095,443.551,90.095z"/>
</g>
<rect x="320.3" y="41.798" style="fill:#F288E8;" width="70.06" height="70.06"/>
<rect x="250.24" y="41.798" style="fill:#FFE92F;" width="70.06" height="70.06"/>
<rect x="180.18" y="41.798" style="fill:#7A6CF7;" width="70.06" height="70.06"/>
<rect x="110.12" y="41.798" style="fill:#2B96F5;" width="70.06" height="70.06"/>
<rect x="40.07" y="111.86" style="fill:#FFE92F;" width="70.06" height="70.06"/>
<rect x="40.07" y="181.91" style="fill:#2B96F5;" width="70.06" height="70.06"/>
<rect x="110.12" y="251.11" style="fill:#FFE92F;" width="70.06" height="70.06"/>
<rect x="180.18" y="251.11" style="fill:#7A6CF7;" width="70.06" height="70.06"/>
<rect x="250.24" y="251.11" style="fill:#2B96F5;" width="70.06" height="70.06"/>
<rect x="320.3" y="251.11" style="fill:#FFE92F;" width="70.06" height="70.06"/>
<rect x="390.35" y="321.17" style="fill:#7A6CF7;" width="70.06" height="70.06"/>
<rect x="320.3" y="391.23" style="fill:#2B96F5;" width="70.06" height="70.06"/>
<rect x="250.24" y="391.23" style="fill:#FFE92F;" width="70.06" height="70.06"/>
<rect x="180.18" y="391.23" style="fill:#7A6CF7;" width="70.06" height="70.06"/>
<g>
	<circle style="fill:#FFE92F;" cx="355.32" cy="76.83" r="8.328"/>
	<circle style="fill:#FFE92F;" cx="145.15" cy="76.83" r="8.328"/>
	<circle style="fill:#FFE92F;" cx="75.09" cy="219.53" r="8.328"/>
	<circle style="fill:#FFE92F;" cx="215.21" cy="286.14" r="8.328"/>
	<circle style="fill:#FFE92F;" cx="425.38" cy="288.79" r="8.328"/>
	<circle style="fill:#FFE92F;" cx="355.32" cy="426.25" r="8.328"/>
	<circle style="fill:#FFE92F;" cx="215.21" cy="426.25" r="8.328"/>
</g>
<g>
</g>
<g>
</g>
<g>
</g>
<g>
</g>
<g>
</g>
<g>
</g>
<g>
</g>
<g>
</g>
<g>
</g>
<g>
</g>
<g>
</g>
<g>
</g>
<g>
</g>
<g>
</g>
<g>
</g>
</svg>
