<?xml version="1.0" encoding="iso-8859-1"?>
<!-- Generator: Adobe Illustrator 19.0.0, SVG Export Plug-In . SVG Version: 6.00 Build 0)  -->
<svg version="1.1" id="Capa_1" xmlns="http://www.w3.org/2000/svg" xmlns:xlink="http://www.w3.org/1999/xlink" x="0px" y="0px"
	 viewBox="0 0 512 512" style="enable-background:new 0 0 512 512;" xml:space="preserve">
<path style="fill:#4A4A4A;" d="M217.942,289.236V488.75l-25.24,8.413c-3.988,1.329-6.143,5.64-4.815,9.628
	c1.329,3.988,5.642,6.144,9.628,4.814l30.444-10.149c3.109-1.036,5.204-3.945,5.204-7.221V289.236H217.942z"/>
<path style="fill:#333333;" d="M294.057,289.236V488.75l25.24,8.413c3.988,1.329,6.143,5.64,4.815,9.628
	c-1.329,3.988-5.642,6.144-9.628,4.814l-30.444-10.149c-3.109-1.036-5.204-3.945-5.204-7.221V289.236H294.057z"/>
<path style="fill:#FFE88A;" d="M286.445,7.611c-4.055,0-7.73,1.595-10.458,4.18C272.095,4.762,264.605,0,255.999,0
	c-8.605,0-16.095,4.762-19.988,11.792c-2.728-2.585-6.404-4.18-10.458-4.18c-8.407,0-15.223,6.816-15.223,15.223s0,68.503,0,68.503
	h91.338c0,0,0-60.096,0-68.503S294.854,7.611,286.445,7.611z"/>
<path style="fill:#623221;" d="M255.999,45.669v91.338c25.222,0,45.669-20.446,45.669-45.669S281.222,45.669,255.999,45.669z"/>
<path style="fill:#7D402B;" d="M271.222,91.338c0-25.222-6.816-45.669-15.223-45.669c-25.222,0-45.669,20.446-45.669,45.669
	s20.446,45.669,45.669,45.669C264.408,137.007,271.222,116.56,271.222,91.338z"/>
<path style="fill:#A4E6FE;" d="M210.331,180.147c-46.166,0-83.726-37.56-83.726-83.726c0-4.205-3.407-7.611-7.611-7.611
	s-7.611,3.407-7.611,7.611c0,54.561,44.388,98.949,98.949,98.949h45.669v-15.223H210.331z"/>
<path style="fill:#68D5FD;" d="M393.006,88.809c-4.205,0-7.611,3.407-7.611,7.611c0,46.166-37.56,83.726-83.726,83.726h-45.669
	v15.223h45.669c54.561,0,98.949-44.388,98.949-98.949C400.618,92.216,397.211,88.809,393.006,88.809z"/>
<path style="fill:#333333;" d="M255.999,258.79v76.115c25.222,0,45.669-20.446,45.669-45.669L255.999,258.79z"/>
<path style="fill:#4A4A4A;" d="M271.222,289.236l-15.223-30.446l-45.669,30.446c0,25.222,20.446,45.669,45.669,45.669
	C264.408,334.905,271.222,314.459,271.222,289.236z"/>
<path style="fill:#68D5FD;" d="M281.371,167.453h-17.76l-38.057,60.892l30.446,60.892h45.669V187.75
	C301.668,176.54,292.581,167.453,281.371,167.453z"/>
<path style="fill:#A4E6FE;" d="M255.999,177.601l-7.611-10.149h-17.76c-11.21,0-20.297,9.087-20.297,20.297v101.486h45.669V177.601z
	"/>
<path style="fill:#333333;" d="M248.388,167.453v91.338c0,4.205,3.407,7.611,7.611,7.611c4.205,0,7.611-3.407,7.611-7.611v-91.338
	H248.388z"/>
<polygon style="fill:#A1A1A1;" points="453.899,319.683 453.899,289.237 423.453,289.237 423.453,319.683 438.676,339.981 "/>
<rect x="423.452" y="319.682" style="fill:#E4E4E4;" width="30.446" height="184.705"/>
<polygon style="fill:#A1A1A1;" points="88.547,319.683 88.547,289.237 58.101,289.237 58.101,319.683 73.324,339.981 "/>
<rect x="58.101" y="319.682" style="fill:#E4E4E4;" width="30.446" height="184.705"/>
<path style="fill:#D2D2D2;" d="M453.899,512h-30.446c-4.204,0-7.611-3.407-7.611-7.611c0-4.205,3.408-7.611,7.611-7.611h30.446
	c4.204,0,7.611,3.407,7.611,7.611C461.511,508.593,458.103,512,453.899,512z"/>
<path style="fill:#EA2820;" d="M255.999,396.656c-64.229,0-124.678-24.608-170.577-69.361H58.101c-4.204,0-7.611-3.407-7.611-7.611
	s3.408-7.611,7.611-7.611h30.446c2.019,0,3.955,0.802,5.382,2.229c89.367,89.368,234.775,89.368,324.142,0
	c1.427-1.427,3.363-2.229,5.382-2.229h30.446c4.204,0,7.611,3.407,7.611,7.611s-3.408,7.611-7.611,7.611h-27.322
	C380.678,372.047,320.228,396.656,255.999,396.656z"/>
<path style="fill:#D2D2D2;" d="M88.547,512H58.101c-4.204,0-7.611-3.407-7.611-7.611c0-4.205,3.408-7.611,7.611-7.611h30.446
	c4.204,0,7.611,3.407,7.611,7.611C96.158,508.593,92.75,512,88.547,512z"/>
<g>
</g>
<g>
</g>
<g>
</g>
<g>
</g>
<g>
</g>
<g>
</g>
<g>
</g>
<g>
</g>
<g>
</g>
<g>
</g>
<g>
</g>
<g>
</g>
<g>
</g>
<g>
</g>
<g>
</g>
</svg>
