<svg height="512pt" viewBox="-58 0 512 512.00012" width="512pt" xmlns="http://www.w3.org/2000/svg"><path d="m358.675781 65.9375c-48.085937-53.460938-121.484375-76.871094-191.566406-61.097656-51.796875 11.660156-95.957031 42.796875-124.339844 87.671875-28.382812 44.875-37.589843 98.117187-25.933593 149.921875 1.820312 8.082031 9.84375 13.160156 17.929687 11.339844 8.082031-1.820313 13.160156-9.847657 11.339844-17.929688-9.898438-43.984375-2.078125-89.191406 22.019531-127.296875 24.097656-38.101563 61.59375-64.535156 105.570312-74.4375 59.507813-13.394531 121.839844 6.488281 162.675782 51.890625 28.09375 31.234375 36.675781 75.386719 22.402344 115.230469l-50.148438 139.964843c-2.792969 7.800782 1.265625 16.386719 9.0625 19.183594 1.671875.597656 3.378906.882813 5.058594.882813 6.15625 0 11.929687-3.820313 14.121094-9.945313l50.148437-139.964844c18-50.246093 7.140625-105.964843-28.339844-145.414062zm0 0" fill="#96adb5"/><path d="m358.675781 65.9375c-29.121093-32.375-67.523437-53.730469-108.851562-62.035156l.003906 30.707031c32.84375 7.828125 63.203125 25.445313 86.542969 51.394531 28.089844 31.230469 36.675781 75.382813 22.398437 115.226563l-50.144531 139.964843c-2.792969 7.800782 1.261719 16.386719 9.0625 19.183594 1.671875.597656 3.378906.882813 5.058594.882813 6.15625 0 11.925781-3.816407 14.121094-9.945313l10.132812-28.273437.34375-3.269531 1.570312-2.074219 38.101563-106.347657c18-50.246093 7.140625-105.964843-28.339844-145.414062zm0 0" fill="#455b69"/><path d="m332.71875 166.949219c-23.226562-22.582031-53.886719-34.519531-86.3125-33.605469-30.742188.867188-59.636719 13.539062-81.359375 35.6875-21.71875 22.140625-33.84375 51.273438-34.140625 82.03125-.238281 24.875 7.078125 48.601562 21.195312 68.890625l12.398438 115.386719c4.691406 43.703125 41.375 76.660156 85.324219 76.660156s80.636719-32.957031 85.328125-76.660156l12.398437-115.386719c13.882813-19.953125 21.199219-43.277344 21.199219-67.722656 0-32.398438-12.796875-62.6875-36.03125-85.28125zm0 0" fill="#455b69"/><path d="m332.71875 166.949219c-22.40625-21.785157-51.738281-33.664063-82.894531-33.652344v378.703125c43.949219 0 80.632812-32.957031 85.328125-76.660156l12.394531-115.386719c13.886719-19.953125 21.203125-43.277344 21.203125-67.722656 0-32.398438-12.796875-62.6875-36.03125-85.28125zm0 0" fill="#262f36"/><path d="m249.042969 354.835938c-8.28125 0-15 6.71875-15 15.003906v28.808594c0 8.285156 6.71875 15.003906 15 15.003906 8.285156 0 15-6.71875 15-15.003906v-28.808594c0-8.289063-6.714844-15.003906-15-15.003906zm0 0" fill="#68f582"/><path d="m249.824219 413.628906c7.921875-.40625 14.222656-6.957031 14.222656-14.980468v-28.8125c0-8.023438-6.300781-14.574219-14.222656-14.980469zm0 0" fill="#4db861"/><path d="m249.824219 210.664062c-27.042969 0-49.042969 22.003907-49.042969 49.050782s22 49.050781 49.042969 49.050781c27.046875 0 49.046875-22.003906 49.046875-49.050781s-22-49.050782-49.046875-49.050782zm0 0" fill="#a1c5ff"/><path d="m249.824219 210.664062v98.101563c27.046875 0 49.046875-22.003906 49.046875-49.050781s-22-49.050782-49.046875-49.050782zm0 0" fill="#5a8cdb"/><path d="m43.082031 211.511719c-23.757812 0-43.082031 19.328125-43.082031 43.085937 0 23.757813 19.324219 43.085938 43.082031 43.085938 23.753907 0 43.078125-19.328125 43.078125-43.085938 0-23.757812-19.324218-43.085937-43.078125-43.085937zm0 0" fill="#455b69"/></svg>