<svg height="511pt" viewBox="-39 1 511 511.99975" width="511pt" xmlns="http://www.w3.org/2000/svg"><path d="m224.996094 512h-153.984375c-28.988281 0-53.886719-16.636719-64.980469-43.417969-11.089844-26.78125-5.25-56.148437 15.246094-76.644531l61.496094-61.496094 21.210937 21.214844-61.492187 61.492188c-14.050782 14.050781-13.730469 31.917968-8.742188 43.953124 4.984375 12.039063 17.390625 24.898438 37.261719 24.898438h153.984375zm0 0" fill="#07485e"/><path d="m62.34375 372.082031 30.558594 30.554688 170.21875-148.121094-41.605469-74.414063zm0 0" fill="#b4d2d7"/><path d="m179.910156 171.308594-148.121094 170.21875 30.554688 30.554687 180.714844-180.714843zm0 0" fill="#e1ebf0"/><path d="m221.515625 212.910156 41.605469 41.605469 55.179687-48.015625-45.1875-72.410156zm0 0" fill="#87a0af"/><path d="m297.710938 136.714844-69.785157-20.585938-48.015625 55.179688 41.605469 41.601562zm0 0" fill="#b4d2d7"/><path d="m404.074219 30.351562-88.449219 40.648438-42.511719 90.316406 45.1875 45.183594c30.515625 3.6875 62.355469-6.175781 85.773438-29.597656 40.46875-40.46875 40.46875-106.082032 0-146.550782zm0 0" fill="#03232e"/><path d="m404.074219 30.351562c-40.46875-40.46875-106.082031-40.46875-146.550781 0-23.421876 23.421876-33.285157 55.261719-29.597657 85.777344l45.1875 45.1875zm0 0" fill="#07485e"/></svg>