<svg height="511pt" viewBox="1 0 511.99993 511" width="511pt" xmlns="http://www.w3.org/2000/svg"><path d="m47.652344.5 135.921875 271.730469-121.910157 136.394531-39.9375 15.8125c-17.128906 6.234375-25.960937 25.171875-19.726562 42.300781 6.234375 17.128907 25.171875 25.960938 42.300781 19.726563l294.054688-108.300782c18.132812-6.601562 27.484375-26.652343 20.882812-44.785156l-121.207031-332.878906zm0 0" fill="#ffdaab"/><path d="m359.238281 333.375-121.207031-332.875h-84.136719l143.011719 392.929688 41.449219-15.265626c18.132812-6.601562 27.484375-26.652343 20.882812-44.789062zm0 0" fill="#ffbe85"/><path d="m58.964844 496.390625 339.429687-124.621094" fill="#a15615"/><path d="m58.964844 511.371094c-6.101563 0-11.835938-3.757813-14.058594-9.820313-2.851562-7.761719 1.132812-16.367187 8.894531-19.21875l326.371094-119.253906c7.761719-2.851563 16.367187 1.128906 19.21875 8.894531s-1.132813 16.371094-8.898437 19.21875l-326.367188 119.257813c-1.703125.625-3.449219.921875-5.160156.921875zm0 0" fill="#a15615"/><path d="m307.175781 421.636719 83.320313-30.445313c7.761718-2.847656 11.746094-11.453125 8.894531-19.21875s-11.453125-11.746094-19.21875-8.894531l-83.242187 30.414063zm0 0" fill="#783207"/><g fill="#cc8135"><path d="m156.339844 302.703125-20.855469 23.332031 63.15625 103.585938 28.648437-10.550782zm0 0"/><path d="m86.460938 380.882812-20.019532 22.398438 66.199219 50.648438 33.273437-12.253907zm0 0"/><path d="m263.285156 69.851562-153.074218 55.714844 13.488281 26.960938 149.832031-54.53125zm0 0"/><path d="m240.699219 7.824219-160.214844 58.3125 13.488281 26.964843 156.972656-57.132812zm0 0"/></g><path d="m166.402344 34.871094 74.300781-27.042969 10.242187 28.144531-74.300781 27.042969zm0 0" fill="#a15615"/><path d="m188.976562 96.902344 74.3125-27.042969 10.242188 28.140625-74.308594 27.046875zm0 0" fill="#a15615"/><path d="m281.363281 283.972656-14.980469-25.949218" fill="#fff"/><path d="m281.375 298.949219c-5.171875 0-10.207031-2.6875-12.980469-7.488281l-14.980469-25.953126c-4.136718-7.160156-1.683593-16.320312 5.480469-20.453124 7.160157-4.132813 16.320313-1.683594 20.457031 5.480468l14.980469 25.949219c4.136719 7.164063 1.679688 16.320313-5.480469 20.457031-2.359374 1.363282-4.933593 2.007813-7.476562 2.007813zm0 0" fill="#d9311c"/><path d="m444.066406 183.90625h-48.917968c-8.269532 0-14.976563-6.707031-14.976563-14.976562v-48.917969c0-8.273438 6.707031-14.976563 14.976563-14.976563 8.269531 0 14.972656 6.703125 14.972656 14.976563v33.941406h33.945312c8.269532 0 14.976563 6.707031 14.976563 14.976563 0 8.269531-6.707031 14.976562-14.976563 14.976562zm0 0" fill="#d9311c"/><path d="m497.023438 130.945312h-48.917969c-8.269531 0-14.976563-6.703124-14.976563-14.972656v-48.921875c0-8.269531 6.707032-14.972656 14.976563-14.972656s14.976562 6.703125 14.976562 14.972656v33.945313h33.941407c8.269531 0 14.976562 6.707031 14.976562 14.976562 0 8.269532-6.707031 14.972656-14.976562 14.972656zm0 0" fill="#d9311c"/><path d="m281.363281 298.949219c-3.8125 0-7.628906-1.449219-10.546875-4.347657-5.871094-5.824218-5.910156-15.304687-.085937-21.175781l166.710937-168.035156c5.828125-5.871094 15.308594-5.90625 21.179688-.082031 5.871094 5.824218 5.910156 15.304687.082031 21.179687l-166.707031 168.03125c-2.929688 2.949219-6.78125 4.429688-10.632813 4.429688zm0 0" fill="#783207"/></svg>