<svg xmlns="http://www.w3.org/2000/svg" viewBox="0 0 511.999 511.999"><path d="M84.516 343.25a7.999 7.999 0 0 1-3.359-15.265l106.352-49.086c4.023-1.852 8.766-.094 10.617 3.914a8 8 0 0 1-3.914 10.617L87.859 342.516a7.979 7.979 0 0 1-3.343.734zM205.305 213.086a7.97 7.97 0 0 1-5.656-2.344l-70.461-70.461c-3.125-3.125-3.125-8.188 0-11.313s8.188-3.125 11.312 0l70.461 70.461a7.996 7.996 0 0 1 0 11.312 7.97 7.97 0 0 1-5.656 2.345zM307.133 213.086a7.97 7.97 0 0 1-5.656-2.344 7.996 7.996 0 0 1 0-11.312L402.969 97.945c3.125-3.125 8.188-3.125 11.313 0s3.125 8.187 0 11.312L312.789 210.742a7.972 7.972 0 0 1-5.656 2.344zM449.594 457.375a7.97 7.97 0 0 1-5.656-2.344L301.469 312.562c-3.125-3.125-3.125-8.187 0-11.312s8.188-3.125 11.312 0L455.25 443.719a7.998 7.998 0 0 1 0 11.313 7.977 7.977 0 0 1-5.656 2.343zM269.305 408a8.007 8.007 0 0 1-7.961-7.273l-6.578-72.305c-.398-4.398 2.844-8.297 7.242-8.695 4.477-.383 8.289 2.852 8.695 7.242l6.578 72.305c.398 4.398-2.844 8.297-7.242 8.695a7.95 7.95 0 0 1-.734.031z" fill="#5c546a"/><circle cx="256.219" cy="256" r="80" fill="#ff4f19"/><circle cx="276" cy="236" r="28" fill="#ff8c62"/><circle cx="47.89" cy="351.89" r="47.89" fill="#ff9100"/><circle cx="59.732" cy="339.918" r="16.762" fill="#ffcd00"/><circle cx="448.109" cy="63.89" r="63.89" fill="#ffcd00"/><circle cx="463.907" cy="47.918" r="22.362" fill="#ffe671"/><circle cx="111.89" cy="112.11" r="39.89" fill="#00c37a"/><circle cx="121.754" cy="102.137" r="13.962" fill="#60dc4d"/><circle cx="471.89" cy="472.109" r="39.89" fill="#4cd7ff"/><circle cx="481.754" cy="462.137" r="13.962" fill="#aeefff"/><circle cx="272.109" cy="432.109" r="39.89" fill="#868491"/><circle cx="281.973" cy="422.137" r="13.962" fill="#b4b6bc"/></svg>